<!-- viewBox cropped to the drawing's bounds plus a 16px margin. -->
<svg xmlns="http://www.w3.org/2000/svg" width="464" height="248" viewBox="8 28 464 248" fill="none" role="img">
  <rect width="480" height="300" fill="#ffffff"/>

  <!-- Search-terms report -->
  <rect x="24" y="44" width="196" height="216" rx="12" fill="#f7f8fa" stroke="#dde1e7"/>
  <text x="40" y="68" font-family="ui-monospace, monospace" font-size="11" fill="#65707d" letter-spacing="0.5">SEARCH TERMS</text>
  <rect x="40" y="82" width="140" height="8" rx="4" fill="#b9c0cb"/>
  <rect x="40" y="102" width="112" height="8" rx="4" fill="#b9c0cb"/>
  <rect x="40" y="122" width="156" height="8" rx="4" fill="#b9c0cb"/>
  <rect x="40" y="142" width="124" height="8" rx="4" fill="#b9c0cb"/>
  <rect x="40" y="162" width="148" height="8" rx="4" fill="#b9c0cb"/>
  <rect x="40" y="182" width="106" height="8" rx="4" fill="#b9c0cb"/>
  <rect x="40" y="202" width="134" height="8" rx="4" fill="#b9c0cb"/>
  <rect x="40" y="222" width="118" height="8" rx="4" fill="#b9c0cb"/>

  <path d="M228 150 H252" stroke="#b9c0cb" stroke-width="1.5"/>
  <circle cx="252" cy="150" r="4" fill="#b54708"/>

  <!-- Frequency ranking, highest first -->
  <rect x="264" y="44" width="192" height="216" rx="12" fill="#f7f8fa" stroke="#dde1e7"/>
  <text x="280" y="68" font-family="ui-monospace, monospace" font-size="11" fill="#b54708" letter-spacing="0.5">CANDIDATES</text>

  <rect x="280" y="80" width="132" height="16" rx="6" fill="#fdf0e4"/>
  <rect x="280" y="80" width="132" height="16" rx="6" fill="#b54708" opacity="0.22"/>
  <text x="418" y="93" font-family="ui-monospace, monospace" font-size="11" fill="#65707d">412</text>

  <rect x="280" y="106" width="104" height="16" rx="6" fill="#fdf0e4"/>
  <rect x="280" y="106" width="104" height="16" rx="6" fill="#b54708" opacity="0.18"/>
  <text x="418" y="119" font-family="ui-monospace, monospace" font-size="11" fill="#65707d">287</text>

  <rect x="280" y="132" width="82" height="16" rx="6" fill="#fdf0e4"/>
  <rect x="280" y="132" width="82" height="16" rx="6" fill="#b54708" opacity="0.15"/>
  <text x="418" y="145" font-family="ui-monospace, monospace" font-size="11" fill="#65707d">193</text>

  <rect x="280" y="158" width="64" height="16" rx="6" fill="#fdf0e4"/>
  <text x="418" y="171" font-family="ui-monospace, monospace" font-size="11" fill="#65707d">124</text>

  <rect x="280" y="184" width="48" height="16" rx="6" fill="#fdf0e4"/>
  <text x="418" y="197" font-family="ui-monospace, monospace" font-size="11" fill="#65707d">86</text>

  <!-- Selected as negatives -->
  <rect x="280" y="216" width="72" height="24" rx="12" fill="#ffffff" stroke="#dde1e7"/>
  <path d="M292 228 H304" stroke="#c0293a" stroke-width="2" stroke-linecap="round"/>
  <rect x="310" y="224" width="30" height="8" rx="4" fill="#b9c0cb"/>

  <rect x="358" y="216" width="82" height="24" rx="12" fill="#ffffff" stroke="#dde1e7"/>
  <path d="M370 228 H382" stroke="#c0293a" stroke-width="2" stroke-linecap="round"/>
  <rect x="388" y="224" width="40" height="8" rx="4" fill="#b9c0cb"/>
</svg>
